<svg width="56" height="52" viewBox="0 0 56 52" fill="none" xmlns="http://www.w3.org/2000/svg">
<path d="M45.6875 29.375H37.4375C37.2137 29.375 36.9991 29.2861 36.8409 29.1279C36.6826 28.9696 36.5938 28.755 36.5938 28.5312C36.5938 28.3075 36.6826 28.0929 36.8409 27.9346C36.9991 27.7764 37.2137 27.6875 37.4375 27.6875H45.6875C45.9113 27.6875 46.1259 27.7764 46.2841 27.9346C46.4423 28.0929 46.5312 28.3075 46.5312 28.5312C46.5312 28.755 46.4423 28.9696 46.2841 29.1279C46.1259 29.2861 45.9113 29.375 45.6875 29.375Z" fill="#E0E2E5"/>
<path d="M27.3125 18.4062L29 38.6562V40.3438H39.125V38.6562L40.8125 18.4062H27.3125Z" fill="#93573D"/>
<path d="M18.875 18.4062V17.5625H15.5V20.0938H12.125V28.5312H15.5H18.875V27.6875H22.25V18.4062H18.875Z" fill="#FDD14B"/>
<path d="M15.5 31.0625C15.2762 31.0625 15.0616 30.9736 14.9034 30.8154C14.7451 30.6571 14.6562 30.4425 14.6562 30.2188V20.9375C14.6562 20.7137 14.7451 20.4991 14.9034 20.3409C15.0616 20.1826 15.2762 20.0938 15.5 20.0938C15.7238 20.0938 15.9384 20.1826 16.0966 20.3409C16.2549 20.4991 16.3438 20.7137 16.3438 20.9375V30.2188C16.3438 30.4425 16.2549 30.6571 16.0966 30.8154C15.9384 30.9736 15.7238 31.0625 15.5 31.0625Z" fill="#E4BC43"/>
<path d="M18.9957 32.75C18.7733 32.75 18.5599 32.6622 18.4019 32.5057C18.2439 32.3492 18.1541 32.1366 18.1519 31.9142L18.0313 19.258C18.0292 19.0342 18.116 18.8188 18.2727 18.659C18.4295 18.4993 18.6432 18.4084 18.867 18.4062C19.0908 18.4041 19.3063 18.491 19.466 18.6477C19.6257 18.8044 19.7167 19.0182 19.7188 19.242L19.8393 31.8982C19.8415 32.122 19.7546 32.3374 19.598 32.4971C19.4413 32.6569 19.2276 32.7478 19.0038 32.75H18.9957Z" fill="#E4BC43"/>
<path d="M11.2812 26.8438L12.9688 38.6562V40.3438H23.0938V38.6562V26.8438H11.2812Z" fill="#E74444"/>
<path d="M50.9375 29.375H49.25C49.0262 29.375 48.8116 29.2861 48.6534 29.1279C48.4951 28.9696 48.4062 28.755 48.4062 28.5312C48.4062 28.3075 48.4951 28.0929 48.6534 27.9346C48.8116 27.7764 49.0262 27.6875 49.25 27.6875H50.9375C51.1613 27.6875 51.3759 27.7764 51.5341 27.9346C51.6924 28.0929 51.7812 28.3075 51.7812 28.5312C51.7812 28.755 51.6924 28.9696 51.5341 29.1279C51.3759 29.2861 51.1613 29.375 50.9375 29.375Z" fill="#E0E2E5"/>
<path d="M40.8125 18.4062L40.5309 21.7812H27.5941L27.3125 18.4062H40.8125Z" fill="#A4D4F4"/>
<path d="M25.6737 13.3437C25.521 13.3436 25.3712 13.302 25.2403 13.2235C25.1094 13.145 25.0022 13.0324 24.9302 12.8977C24.8583 12.7631 24.8242 12.6114 24.8316 12.4589C24.839 12.3064 24.8877 12.1588 24.9724 12.0318L25.774 10.8288C25.8936 10.6494 25.94 10.4309 25.9036 10.2184C25.8672 10.0058 25.7507 9.81526 25.5782 9.68585L24.7574 9.07002C24.24 8.68164 23.891 8.10997 23.7819 7.47235C23.6728 6.83472 23.8119 6.17953 24.1706 5.64123L24.9722 4.43815C25.0337 4.34596 25.1127 4.26677 25.2048 4.20512C25.2968 4.14346 25.4001 4.10055 25.5088 4.07882C25.6175 4.05709 25.7293 4.05698 25.838 4.07849C25.9467 4.09999 26.0501 4.1427 26.1423 4.20417C26.2345 4.26564 26.3137 4.34466 26.3754 4.43673C26.437 4.5288 26.4799 4.63211 26.5017 4.74077C26.5234 4.84943 26.5235 4.9613 26.502 5.07C26.4805 5.1787 26.4378 5.2821 26.3763 5.37429L25.5744 6.57727C25.4548 6.75672 25.4085 6.97516 25.4449 7.18773C25.4813 7.40029 25.5977 7.59084 25.7703 7.72023L26.5911 8.33606C27.1086 8.72439 27.4577 9.29603 27.5669 9.93367C27.6762 10.5713 27.5372 11.2266 27.1785 11.765L26.3769 12.968C26.2998 13.0838 26.1952 13.1787 26.0725 13.2443C25.9498 13.3098 25.8128 13.344 25.6737 13.3437Z" fill="#E0E2E5"/>
<path d="M18.9237 13.3438C18.771 13.3437 18.6212 13.3022 18.4903 13.2236C18.3594 13.1451 18.2522 13.0325 18.1802 12.8978C18.1083 12.7632 18.0742 12.6115 18.0816 12.4591C18.089 12.3066 18.1377 12.1589 18.2224 12.0319L19.024 10.8289C19.1436 10.6495 19.19 10.4311 19.1536 10.2185C19.1172 10.0059 19.0007 9.81539 18.8282 9.68598L18.0074 9.07015C17.49 8.68177 17.141 8.11009 17.0319 7.47247C16.9228 6.83485 17.0619 6.17965 17.4206 5.64136L18.2222 4.43828C18.3463 4.25208 18.5394 4.12282 18.7588 4.07894C18.9782 4.03506 19.2061 4.08015 19.3923 4.20429C19.5785 4.32843 19.7078 4.52145 19.7517 4.7409C19.7955 4.96034 19.7504 5.18822 19.6263 5.37442L18.8244 6.57739C18.7048 6.75685 18.6585 6.97529 18.6949 7.18785C18.7313 7.40042 18.8477 7.59096 19.0203 7.72036L19.8411 8.33619C20.3586 8.72451 20.7077 9.29616 20.8169 9.93379C20.9262 10.5714 20.7872 11.2267 20.4285 11.7651L19.6269 12.9682C19.5498 13.0839 19.4452 13.1788 19.3225 13.2444C19.1998 13.3099 19.0628 13.3441 18.9237 13.3438Z" fill="#E0E2E5"/>
<path d="M32.3299 13.3437C32.1772 13.3436 32.0274 13.3021 31.8965 13.2235C31.7656 13.145 31.6584 13.0324 31.5865 12.8977C31.5145 12.7631 31.4804 12.6114 31.4878 12.4589C31.4952 12.3064 31.5439 12.1588 31.6286 12.0318L32.4307 10.8288C32.5503 10.6494 32.5967 10.4309 32.5603 10.2184C32.5238 10.0058 32.4074 9.81527 32.2349 9.68587L31.414 9.07015C30.8966 8.68182 30.5474 8.11018 30.4382 7.47254C30.329 6.8349 30.468 6.17964 30.8266 5.64125L31.6282 4.43817C31.7523 4.25189 31.9454 4.12255 32.1649 4.07861C32.2736 4.05686 32.3855 4.05672 32.4942 4.07821C32.603 4.0997 32.7064 4.1424 32.7986 4.20387C32.8909 4.26534 32.9701 4.34437 33.0318 4.43646C33.0935 4.52854 33.1364 4.63188 33.1582 4.74057C33.18 4.84925 33.1801 4.96116 33.1586 5.0699C33.1371 5.17863 33.0944 5.28207 33.0329 5.37431L32.2314 6.57729C32.1118 6.75673 32.0654 6.97516 32.1018 7.18772C32.1382 7.40029 32.2546 7.59084 32.4271 7.72025L33.248 8.33608C33.7655 8.72437 34.1146 9.29602 34.2239 9.93367C34.3331 10.5713 34.1941 11.2266 33.8354 11.765L33.0338 12.9681C32.9566 13.0839 32.8519 13.1789 32.7291 13.2444C32.6063 13.31 32.4691 13.3441 32.3299 13.3437Z" fill="#E0E2E5"/>
<path d="M53.4688 24.3125H44.1875C43.9637 24.3125 43.7491 24.2236 43.5909 24.0654C43.4326 23.9071 43.3438 23.6925 43.3438 23.4688C43.3438 23.245 43.4326 23.0304 43.5909 22.8721C43.7491 22.7139 43.9637 22.625 44.1875 22.625H53.4688C53.6925 22.625 53.9071 22.7139 54.0654 22.8721C54.2236 23.0304 54.3125 23.245 54.3125 23.4688C54.3125 23.6925 54.2236 23.9071 54.0654 24.0654C53.9071 24.2236 53.6925 24.3125 53.4688 24.3125Z" fill="#E0E2E5"/>
<path d="M47.5625 34.4375H42.5C42.2762 34.4375 42.0616 34.3486 41.9034 34.1904C41.7451 34.0321 41.6562 33.8175 41.6562 33.5938C41.6562 33.37 41.7451 33.1554 41.9034 32.9971C42.0616 32.8389 42.2762 32.75 42.5 32.75H47.5625C47.7863 32.75 48.0009 32.8389 48.1591 32.9971C48.3174 33.1554 48.4062 33.37 48.4062 33.5938C48.4062 33.8175 48.3174 34.0321 48.1591 34.1904C48.0009 34.3486 47.7863 34.4375 47.5625 34.4375Z" fill="#E0E2E5"/>
<path d="M53.4688 47.9375H4.53125C4.30747 47.9375 4.09286 47.8486 3.93463 47.6904C3.77639 47.5321 3.6875 47.3175 3.6875 47.0938C3.6875 46.87 3.77639 46.6554 3.93463 46.4971C4.09286 46.3389 4.30747 46.25 4.53125 46.25H53.4688C53.6925 46.25 53.9071 46.3389 54.0654 46.4971C54.2236 46.6554 54.3125 46.87 54.3125 47.0938C54.3125 47.3175 54.2236 47.5321 54.0654 47.6904C53.9071 47.8486 53.6925 47.9375 53.4688 47.9375Z" fill="#C2C5C6"/>
<path d="M4.53125 38.6562H46.7188V40.3438C46.7188 40.7913 46.541 41.2205 46.2245 41.537C45.908 41.8535 45.4788 42.0312 45.0312 42.0312H6.21875C5.7712 42.0312 5.34197 41.8535 5.02551 41.537C4.70904 41.2205 4.53125 40.7913 4.53125 40.3438V38.6562Z" fill="#FDD14B"/>
<path d="M38.2812 47.0938C41.0772 47.0938 43.3438 44.8272 43.3438 42.0312C43.3438 39.2353 41.0772 36.9688 38.2812 36.9688C35.4853 36.9688 33.2188 39.2353 33.2188 42.0312C33.2188 44.8272 35.4853 47.0938 38.2812 47.0938Z" fill="#6A7073"/>
<path d="M38.2812 43.7188C39.2132 43.7188 39.9688 42.9632 39.9688 42.0312C39.9688 41.0993 39.2132 40.3438 38.2812 40.3438C37.3493 40.3438 36.5938 41.0993 36.5938 42.0312C36.5938 42.9632 37.3493 43.7188 38.2812 43.7188Z" fill="#99A2A7"/>
<path d="M12.9688 47.0938C15.7647 47.0938 18.0312 44.8272 18.0312 42.0312C18.0312 39.2353 15.7647 36.9688 12.9688 36.9688C10.1728 36.9688 7.90625 39.2353 7.90625 42.0312C7.90625 44.8272 10.1728 47.0938 12.9688 47.0938Z" fill="#6A7073"/>
<path d="M12.9688 43.7188C13.9007 43.7188 14.6562 42.9632 14.6562 42.0312C14.6562 41.0993 13.9007 40.3438 12.9688 40.3438C12.0368 40.3438 11.2812 41.0993 11.2812 42.0312C11.2812 42.9632 12.0368 43.7188 12.9688 43.7188Z" fill="#99A2A7"/>
<path d="M18.0312 35.2812H33.2188V36.9688C33.2188 37.4163 33.041 37.8455 32.7245 38.162C32.408 38.4785 31.9788 38.6562 31.5312 38.6562H19.7188C19.2712 38.6562 18.842 38.4785 18.5255 38.162C18.209 37.8455 18.0312 37.4163 18.0312 36.9688V35.2812Z" fill="#EA8333"/>
<path d="M32.5285 31.9062C33.3757 31.9062 34.0625 32.6617 34.0625 33.5938C34.0625 34.5258 33.3757 35.2812 32.5285 35.2812H18.7215C17.8743 35.2812 17.1875 34.5258 17.1875 33.5938C17.1875 32.6617 17.8743 31.9062 18.7215 31.9062H32.5285Z" fill="#794832"/>
<path d="M18.875 28.5312H32.375V31.9062H18.875V28.5312Z" fill="#FDD14B"/>
<path d="M34.9062 29.375C34.9062 30.773 33.719 31.9063 32.2544 31.9063C31.8221 31.9096 31.3953 31.8083 31.0104 31.6112C30.6256 31.4141 30.2941 31.1269 30.0441 30.774C29.7919 31.1243 29.46 31.4097 29.0759 31.6065C28.6917 31.8033 28.2662 31.9059 27.8346 31.9059C27.4029 31.9059 26.9775 31.8033 26.5933 31.6065C26.2091 31.4097 25.8772 31.1243 25.625 30.774C25.3728 31.1243 25.0409 31.4097 24.6567 31.6065C24.2725 31.8033 23.8471 31.9059 23.4154 31.9059C22.9838 31.9059 22.5583 31.8033 22.1741 31.6065C21.79 31.4097 21.4581 31.1243 21.2059 30.774C20.9559 31.1269 20.6244 31.4141 20.2395 31.6112C19.8547 31.8083 19.4279 31.9096 18.9956 31.9063C17.531 31.9063 16.3438 30.773 16.3438 29.375C16.3438 29.1512 16.4326 28.9366 16.5909 28.7784C16.7491 28.6201 16.9637 28.5312 17.1875 28.5312H34.0625C34.2863 28.5312 34.5009 28.6201 34.6591 28.7784C34.8174 28.9366 34.9062 29.1512 34.9062 29.375Z" fill="#3BA673"/>
<path d="M33.2188 21.7813V15.0313C33.2187 14.8626 33.2693 14.6979 33.3638 14.5582C33.4584 14.4186 33.5926 14.3105 33.7492 14.2478L37.9679 12.5603C38.0708 12.5192 38.1808 12.4987 38.2916 12.5001C38.4024 12.5014 38.5118 12.5246 38.6136 12.5682C38.7155 12.6119 38.8077 12.6752 38.8851 12.7545C38.9625 12.8338 39.0235 12.9275 39.0647 13.0304C39.1058 13.1333 39.1263 13.2433 39.125 13.3541C39.1236 13.4649 39.1004 13.5743 39.0568 13.6762C39.0131 13.778 38.9499 13.8703 38.8706 13.9476C38.7912 14.025 38.6975 14.086 38.5946 14.1272L34.9063 15.6025V21.7813H33.2188Z" fill="#E74444"/>
<path d="M33.2188 18.4062H34.9062V21.7812H33.2188V18.4062Z" fill="#CE3536"/>
</svg>
