<svg width="14" height="14" viewBox="0 0 14 14" fill="none" xmlns="http://www.w3.org/2000/svg">
<path d="M10.8883 7.54628L4.6581 13.7763C4.51401 13.9206 4.32165 14 4.11655 14C3.91144 14 3.71909 13.9206 3.57499 13.7763L3.11618 13.3176C2.81763 13.0188 2.81763 12.533 3.11618 12.2345L8.34781 7.0029L3.11038 1.76547C2.96628 1.62126 2.88672 1.42901 2.88672 1.22402C2.88672 1.0188 2.96628 0.826562 3.11038 0.682239L3.56918 0.223657C3.7134 0.0794468 3.90564 0 4.11074 0C4.31585 0 4.5082 0.0794468 4.6523 0.223657L10.8883 6.45941C11.0327 6.60408 11.1121 6.79723 11.1116 7.00256C11.1121 7.20869 11.0327 7.40173 10.8883 7.54628Z" fill="#D64374"/>
</svg>
